
<svg
  version="1.0"
  xmlns="http://www.w3.org/2000/svg"
  xmlns:xlink="http://www.w3.org/1999/xlink"
  width="2400"
  height="1800"
>
  
  <rect
    x="0"
    y="0"
    width="100%"
    height="100%"
    fill="#333333"
    fill-opacity="1"
  ></rect>
  <svg
    version="1.0"
    xmlns="http://www.w3.org/2000/svg"
    xmlns:xlink="http://www.w3.org/1999/xlink"
    x="0"
    y="0"
    width="2400"
    height="1800"
    viewBox="0 0 340.000000 250.000000"
    preserveAspectRatio="xMidYMid meet"
    color-interpolation-filters="sRGB"
  >
    <defs><linearGradient id="92" x1="0%" y1="0%" x2="100%" y2="0%"><stop offset="0%" stop-color="#fa71cd"/> <stop offset="100%" stop-color="#9b59b6"/></linearGradient><linearGradient id="93" x1="0%" y1="0%" x2="100%" y2="0%"><stop offset="0%" stop-color="#f9d423"/> <stop offset="100%" stop-color="#f83600"/></linearGradient><linearGradient id="94" x1="0%" y1="0%" x2="100%" y2="0%"><stop offset="0%" stop-color="#0064d2"/> <stop offset="100%" stop-color="#1cb0f6"/></linearGradient><linearGradient id="95" x1="0%" y1="0%" x2="100%" y2="0%"><stop offset="0%" stop-color="#f00978"/> <stop offset="100%" stop-color="#3f51b1"/></linearGradient><linearGradient id="96" x1="0%" y1="0%" x2="100%" y2="0%"><stop offset="0%" stop-color="#7873f5"/> <stop offset="100%" stop-color="#ec77ab"/></linearGradient><linearGradient id="97" x1="0%" y1="0%" x2="100%" y2="0%"><stop offset="0%" stop-color="#f9d423"/> <stop offset="100%" stop-color="#e14fad"/></linearGradient><linearGradient id="98" x1="0%" y1="0%" x2="100%" y2="0%"><stop offset="0%" stop-color="#009efd"/> <stop offset="100%" stop-color="#2af598"/></linearGradient><linearGradient id="99" x1="0%" y1="0%" x2="100%" y2="0%"><stop offset="0%" stop-color="#ffcc00"/> <stop offset="100%" stop-color="#00b140"/></linearGradient><linearGradient id="100" x1="0%" y1="0%" x2="100%" y2="0%"><stop offset="0%" stop-color="#d51007"/> <stop offset="100%" stop-color="#ff8177"/></linearGradient><linearGradient id="102" x1="0%" y1="0%" x2="100%" y2="0%"><stop offset="0%" stop-color="#a2b6df"/> <stop offset="100%" stop-color="#0c3483"/></linearGradient><linearGradient id="103" x1="0%" y1="0%" x2="100%" y2="0%"><stop offset="0%" stop-color="#7ac5d8"/> <stop offset="100%" stop-color="#eea2a2"/></linearGradient><linearGradient id="104" x1="0%" y1="0%" x2="100%" y2="0%"><stop offset="0%" stop-color="#00ecbc"/> <stop offset="100%" stop-color="#007adf"/></linearGradient><linearGradient id="105" x1="0%" y1="0%" x2="100%" y2="0%"><stop offset="0%" stop-color="#b88746"/> <stop offset="100%" stop-color="#fdf5a6"/></linearGradient></defs> <g fill="#ffffff" class="icon-text-wrapper icon-svg-group iconsvg" transform="translate(87.42999267578125,71.81517792059113)"><g class="iconsvg-imagesvg" transform="translate(52.57000732421875,0)"><g><rect fill="#ffffff" fill-opacity="0" stroke-width="2" x="0" y="0" width="60" height="60.04563468235859" class="image-rect"/> <svg x="0" y="0" width="60" height="60.04563468235859" filtersec="colorsb7124160739" class="image-svg-svg primary" style="overflow: visible;"><svg xmlns="http://www.w3.org/2000/svg" viewBox="0.0186874121427536 0.03168483451008797 71.8552474975586 71.91011047363281"><path d="M71.85 12.61c0 2.6.05 5.21 0 7.81-.09 3.42-2.1 4.7-5.32 4.78-5.32.13-7.43-.78-7.59-4.23-.26-5.67-.21-11.36 0-17 .1-2.56 1.76-4 4.53-3.93h3.55c3.35-.15 4.72 1.74 4.82 4.79.07 2.57.01 5.17.01 7.78zM71.86 41.53v4.27c0 5.63-1.08 6.68-6.6 6.67-5.29 0-6.45-1.15-6.47-6.47 0-3.43-.07-6.87 0-10.31.11-3.79 1.49-5.11 5.18-5.19 7.16-.16 7.86.53 7.87 7.83z" fill="#4c88ef"/><path d="M13 60.69c0 1.18-.07 2.37 0 3.55.63 8.1-2.69 7.89-9.93 7.18-2.2-.21-3-2.2-3-4.24C0 62.93 0 58.67.08 54.43c.09-3.1 1.76-4.77 5-4.63h2.84c3.73.09 5 1.36 5.06 5.21.02 1.9.02 3.79.02 5.68z" fill="#e54c41"/><path d="M19.6 44v-2.48c0-5.88 1-6.86 6.81-6.82 5.08 0 6.2 1.15 6.25 6.34v7.82c-.05 3.15-1.55 4.87-4.83 4.79h-3.2c-3.61-.14-4.85-1.37-5-5-.08-1.65-.03-3.15-.03-4.65z" fill="#f9be15"/><path d="M52.14 62.47v2.84c0 5.46-.93 6.36-6.42 6.36s-6.35-.89-6.37-6.42c0-2.6-.05-5.21 0-7.81.08-2.83 1.5-4.4 4.44-4.37h3.2c3.88.08 5 1.2 5.11 5.13.07 1.42.04 2.8.04 4.27z" fill="#3fa95b"/><path d="M71.85 64.66c0 6.14-.82 7-6.52 7s-6.55-1-6.54-7c0-5.86 1.05-6.93 6.73-6.92 5.33 0 6.33 1.09 6.33 6.92z" fill="#4c88ef"/><path d="M26.23 58.71c5.35 0 6.42 1.08 6.42 6.47S31.34 72 26 71.94s-6.43-1.27-6.43-6.56c.02-5.52 1.18-6.68 6.66-6.67z" fill="#f8be18"/><path d="M52.15 40.81c0 6.16-5.37 9.21-10.68 6.32a4 4 0 0 1-2-3.14c-.13-.93 0-1.89-.1-2.83-.56-8.43 2.93-8 9.85-7.16 3.67.47 2.78 4.29 2.93 6.81zM45.91 15.56c5.37 0 6.27.94 6.25 6.52 0 5.21-1 6.24-6.22 6.24-5.7 0-6.61-.9-6.59-6.56.01-5.34.93-6.2 6.56-6.2z" fill="#3fa95b"/></svg></svg> </g></g> <g transform="translate(0,67.04563522338867)"><g fill-rule="" class="tp-name iconsvg-namesvg" transform="translate(0,0)"><g transform="scale(1)"><g><path d="M6.93 0C7.33 0 7.43-0.13 7.46-0.49 7.56-1.52 8.81-19.11 8.81-20.03 8.81-22.28 8.12-23.43 5.41-23.43L3.6-23.43C3.23-23.43 3.07-23.3 3.07-22.94 3.07-20.69 1.68-5.48 1.68-2.81 1.68-1.02 2.67 0 5.12 0ZM22.97-2.9C22.97-1.06 23.59 0 26.37 0L27.42 0C28.18 0 28.31-0.07 28.31-1.02 28.31-2.15 29.2-10.36 29.2-12.51 29.2-17 27.46-18.48 23.76-18.48 21.12-18.48 19.5-17.72 18.12-15.38 18.02-16.83 17.32-18.15 14.69-18.15L13.4-18.15C13.1-18.15 12.97-18.15 12.87-18.05 12.77-17.95 12.74-17.72 12.71-17.19 12.01-7.49 11.71-4.49 11.71-3.14 11.71-1.12 12.38 0 15.08 0L16.27 0C16.83 0 16.96-0.13 17-0.66 17.75-11.58 18.61-14.06 21.65-14.06 23.23-14.06 23.66-13 23.66-11.85 23.66-9.67 22.97-4.82 22.97-2.9ZM43.4-2.9C43.4-1.06 44.02 0 46.79 0L47.85 0C48.61 0 48.74-0.07 48.74-1.02 48.74-2.15 49.63-10.36 49.63-12.51 49.63-17 47.88-18.48 44.19-18.48 41.55-18.48 39.93-17.72 38.54-15.38 38.45-16.83 37.75-18.15 35.11-18.15L33.83-18.15C33.53-18.15 33.4-18.15 33.3-18.05 33.2-17.95 33.16-17.72 33.13-17.19 32.44-7.49 32.14-4.49 32.14-3.14 32.14-1.12 32.8 0 35.51 0L36.7 0C37.26 0 37.39-0.13 37.42-0.66 38.18-11.58 39.04-14.06 42.08-14.06 43.66-14.06 44.09-13 44.09-11.85 44.09-9.67 43.4-4.82 43.4-2.9ZM59.96 0.33C68.24 0.33 69.83-6.6 69.83-10.76 69.83-15.64 67.62-18.48 62.07-18.48 54.52-18.48 52.17-13.23 52.17-7.92 52.17-3.33 53.92 0.33 59.96 0.33ZM61.51-14.09C63.46-14.09 64.22-12.74 64.22-10.56 64.22-8.51 63.56-4.06 60.46-4.06 58.74-4.06 57.78-5.38 57.78-8.28 57.78-10.16 58.18-14.09 61.51-14.09ZM79.53-4.19C79.04-7.39 78.14-14.52 78.01-15.41 77.62-17.69 76.03-18.15 72.01-18.15 71.41-18.15 70.95-17.69 70.92-17.39 70.92-17.13 71.48-16.14 75.34-2.87 75.77-1.42 76.26 0 78.08 0L81.02 0C81.61 0 81.77 0 82.14-0.49 83.39-2.31 88.74-13.89 88.74-16.17 88.74-18.05 85.14-18.12 83.85-18.12 82.96-18.12 82.83-17.98 82.7-17.36 81.25-11.12 80.59-7.85 79.53-4.19ZM89.17-4.06C89.17-0.86 91.31 0.33 93.95 0.33 96.69 0.33 98.27-1.02 99.33-2.54 99.66-0.76 100.65 0.33 102.76 0.33 105.8 0.33 106.72-2.01 106.72-3.96 106.72-4.65 104.78-3.93 104.78-6.14 104.78-7.13 105.34-11.68 105.34-12.67 105.34-16.37 103.26-18.48 98.37-18.48 93.32-18.48 90.82-16.24 90.82-13.46 90.82-11.71 91.94-10.92 94.18-10.92 94.84-10.92 95.11-10.99 95.21-11.38 95.6-12.97 95.9-14.06 97.75-14.06 99.4-14.06 99.79-13.17 99.79-11.75 99.79-11.29 99.76-10.99 99.73-10.53 92.83-10.36 89.17-7.99 89.17-4.06ZM99.43-7.82C99.23-5.31 97.78-4.06 96.36-4.06 95.63-4.06 94.84-4.39 94.84-5.41 94.84-7.16 97.12-7.82 99.43-7.82ZM117.58-13.7C119.56-13.7 119.99-14.59 120.09-15.91L120.22-17.69C120.22-18.02 120.02-18.15 119.69-18.15L116.23-18.15C116.29-19.01 116.33-19.67 116.33-20.1 116.33-21.68 115.73-23 113.88-23L112.93-23C112.33-23 111.34-19.73 110.72-18.15 108.67-18.15 108.41-16.96 108.34-15.84L108.24-14.16C108.24-13.86 108.27-13.7 108.6-13.7L110.35-13.7C109.89-7.46 109.59-5.51 109.59-4.16 109.59-1.16 111.08 0.33 114.25 0.33 117.45 0.33 118.64-1.19 118.64-3.6 118.64-4.85 118.31-5.08 118.01-5.08 117.41-5.08 117.05-4.22 116.06-4.22 115.47-4.22 115.2-4.52 115.2-5.64 115.2-6.9 115.53-10.4 115.83-13.7ZM129.29 0.33C132.23 0.33 135.76-0.69 135.76-3.27 135.76-5.25 133.68-5.61 133.25-5.61 132.33-5.61 132.36-3.8 130.05-3.8 127.81-3.8 126.92-5.48 126.92-7.16 129.06-7.16 137.25-7.49 137.25-13.53 137.25-16.24 135.63-18.48 131.04-18.48 122.53-18.48 121.24-10.72 121.24-7.39 121.24-1.39 125.47 0.33 129.29 0.33ZM129.92-14.09C131.04-14.09 131.6-13.27 131.6-12.38 131.6-10.76 129.72-9.83 127.02-9.8 127.25-11.68 127.97-14.09 129.92-14.09ZM144.8 0C145.2 0 145.3-0.13 145.33-0.49 145.43-1.52 146.69-19.11 146.69-20.03 146.69-22.28 145.99-23.43 143.29-23.43L141.47-23.43C141.11-23.43 140.94-23.3 140.94-22.94 140.94-20.69 139.56-5.48 139.56-2.81 139.56-1.02 140.55 0 142.99 0ZM164.18-18.81C166.16-18.81 166.58-19.7 166.68-21.02L166.82-22.97C166.82-23.3 166.55-23.43 166.29-23.43L151.54-23.43C149.92-23.43 149.39-22.24 149.33-21.12L149.23-19.27C149.23-18.98 149.29-18.81 149.59-18.81L154.87-18.81C154.47-13.4 153.75-4.75 153.75-2.81 153.75-1.02 154.74 0 157.18 0L158.99 0C159.23 0 159.32-0.13 159.36-0.49L160.61-18.81Z" transform="translate(-1.6800000667572021, 23.43000030517578)"/></g> </g></g> <g fill-rule="" class="tp-slogan iconsvg-slogansvg" fill="#ffffff" transform="translate(5,30.76000213623047)"><rect x="0" height="1" y="3.7799997329711914" width="48.78000831604004"/> <rect height="1" y="3.7799997329711914" width="48.78000831604004" x="106.36000633239746"/> <g transform="translate(51.78000831604004,0)"><g transform="scale(1)"><path d="M0.73 0L0.73-0.79L2.04-0.79Q2.72-0.79 3.03-1.20Q3.34-1.61 3.34-2.21L3.34-2.21Q3.34-2.68 3.16-3.02Q2.99-3.36 2.74-3.59Q2.48-3.82 2.05-4.12L2.05-4.12Q1.60-4.43 1.31-4.69Q1.03-4.94 0.84-5.34Q0.65-5.74 0.65-6.29L0.65-6.29Q0.65-7.25 1.22-7.82Q1.80-8.40 2.82-8.40L2.82-8.40L3.79-8.40L3.79-7.61L2.87-7.61Q2.29-7.61 1.99-7.24Q1.69-6.86 1.69-6.37L1.69-6.37Q1.69-5.89 1.97-5.58Q2.24-5.27 2.81-4.87L2.81-4.87Q3.32-4.50 3.64-4.21Q3.95-3.91 4.17-3.43Q4.39-2.95 4.39-2.28L4.39-2.28Q4.39-1.15 3.75-0.58Q3.11 0 1.99 0L1.99 0L0.73 0ZM8.50 0.08Q7.38 0.08 6.80-0.49Q6.21-1.06 6.21-2.08L6.21-2.08L6.21-6.32Q6.21-7.34 6.80-7.91Q7.38-8.48 8.50-8.48L8.50-8.48Q9.63-8.48 10.22-7.91Q10.80-7.34 10.80-6.32L10.80-6.32L10.80-2.08Q10.80-1.06 10.22-0.49Q9.63 0.08 8.50 0.08L8.50 0.08ZM8.50-0.71Q9.03-0.71 9.39-1.01Q9.75-1.32 9.75-1.87L9.75-1.87L9.75-6.53Q9.75-7.08 9.39-7.39Q9.03-7.69 8.50-7.69L8.50-7.69Q7.97-7.69 7.62-7.39Q7.26-7.08 7.26-6.53L7.26-6.53L7.26-1.87Q7.26-1.32 7.62-1.01Q7.97-0.71 8.50-0.71L8.50-0.71ZM16.71 0L13.20 0L13.20-8.40L14.25-8.40L14.25-0.79L16.71-0.79L16.71 0ZM20.51 0.08Q18.38 0.08 18.38-2.08L18.38-2.08L18.38-8.40L19.44-8.40L19.44-1.87Q19.44-1.30 19.72-1.00Q20.00-0.71 20.51-0.71L20.51-0.71Q21.01-0.71 21.30-1.00Q21.59-1.30 21.59-1.87L21.59-1.87L21.59-8.40L22.64-8.40L22.64-2.08Q22.64 0.08 20.51 0.08L20.51 0.08ZM27.14 0L26.08 0L26.08-7.61L24.40-7.61L24.40-8.40L28.82-8.40L28.82-7.61L27.14-7.61L27.14 0ZM31.99 0L30.93 0L30.93-8.40L31.99-8.40L31.99 0ZM36.67 0.08Q35.56 0.08 34.97-0.49Q34.38-1.06 34.38-2.08L34.38-2.08L34.38-6.32Q34.38-7.34 34.97-7.91Q35.56-8.48 36.67-8.48L36.67-8.48Q37.80-8.48 38.39-7.91Q38.98-7.34 38.98-6.32L38.98-6.32L38.98-2.08Q38.98-1.06 38.39-0.49Q37.80 0.08 36.67 0.08L36.67 0.08ZM36.67-0.71Q37.20-0.71 37.56-1.01Q37.92-1.32 37.92-1.87L37.92-1.87L37.92-6.53Q37.92-7.08 37.56-7.39Q37.20-7.69 36.67-7.69L36.67-7.69Q36.14-7.69 35.79-7.39Q35.44-7.08 35.44-6.53L35.44-6.53L35.44-1.87Q35.44-1.32 35.79-1.01Q36.14-0.71 36.67-0.71L36.67-0.71ZM42.33 0L41.27 0L41.27-8.40L43.04-8.40L44.99-1.14L44.99-8.40L46.06-8.40L46.06 0L44.55 0L42.33-7.63L42.33 0ZM48.57 0L48.57-0.79L49.88-0.79Q50.56-0.79 50.87-1.20Q51.18-1.61 51.18-2.21L51.18-2.21Q51.18-2.68 51.00-3.02Q50.83-3.36 50.58-3.59Q50.32-3.82 49.89-4.12L49.89-4.12Q49.44-4.43 49.15-4.69Q48.87-4.94 48.68-5.34Q48.49-5.74 48.49-6.29L48.49-6.29Q48.49-7.25 49.06-7.82Q49.64-8.40 50.66-8.40L50.66-8.40L51.63-8.40L51.63-7.61L50.71-7.61Q50.13-7.61 49.83-7.24Q49.53-6.86 49.53-6.37L49.53-6.37Q49.53-5.89 49.81-5.58Q50.08-5.27 50.65-4.87L50.65-4.87Q51.16-4.50 51.48-4.21Q51.79-3.91 52.01-3.43Q52.23-2.95 52.23-2.28L52.23-2.28Q52.23-1.15 51.59-0.58Q50.95 0 49.83 0L49.83 0L48.57 0Z" transform="translate(-0.648, 8.484)"/></g></g></g></g></g><defs v-gra="od"/>
  </svg>
</svg>


